HIERARCHY
ROOT joint_Root
{
	OFFSET 0.0 0.0 0.0
	CHANNELS 6 Xposition Yposition Zposition Zrotation Xrotation Yrotation 
	JOINT Hips
	{
		OFFSET 4.5925 91.4895 -427.239
		CHANNELS 6 Xposition Yposition Zposition Zrotation Xrotation Yrotation 
		JOINT Spine
		{
			OFFSET 15.7357 0.0 0.0
			CHANNELS 6 Xposition Yposition Zposition Zrotation Xrotation Yrotation 
			JOINT Chest
			{
				OFFSET 8.98455 -0.406207 0.0
				CHANNELS 6 Xposition Yposition Zposition Zrotation Xrotation Yrotation 
				JOINT Neck
				{
					OFFSET 16.3773 0.0 0.0
					CHANNELS 6 Xposition Yposition Zposition Zrotation Xrotation Yrotation 
					JOINT Head
					{
						OFFSET 6.45672 0.0 0.0
						CHANNELS 6 Xposition Yposition Zposition Zrotation Xrotation Yrotation 
						End Site
						{
							OFFSET 0.0 0.0 0.0
						}
					}
				}
				JOINT Shoulder_L
				{
					OFFSET 12.9942 -0.242716 4.98039
					CHANNELS 6 Xposition Yposition Zposition Zrotation Xrotation Yrotation 
					JOINT UpperArm_L
					{
						OFFSET 5.34809 0.0 0.0
						CHANNELS 6 Xposition Yposition Zposition Zrotation Xrotation Yrotation 
						JOINT LowerArm_L
						{
							OFFSET 24.3286 1.87007e-05 0.0
							CHANNELS 6 Xposition Yposition Zposition Zrotation Xrotation Yrotation 
							JOINT Hand_L
							{
								OFFSET 22.2916 0.0 0.0
								CHANNELS 6 Xposition Yposition Zposition Zrotation Xrotation Yrotation 
								End Site
								{
									OFFSET 0.0 0.0 0.0
								}
							}
						}
					}
				}
				JOINT Shoulder_R
				{
					OFFSET 12.9945 -0.242716 -4.98039
					CHANNELS 6 Xposition Yposition Zposition Zrotation Xrotation Yrotation 
					JOINT UpperArm_R
					{
						OFFSET -5.34813 0.0 0.0
						CHANNELS 6 Xposition Yposition Zposition Zrotation Xrotation Yrotation 
						JOINT LowerArm_R
						{
							OFFSET -24.3289 0.000322201 0.0
							CHANNELS 6 Xposition Yposition Zposition Zrotation Xrotation Yrotation 
							JOINT Hand_R
							{
								OFFSET -22.2915 -0.000108084 0.0
								CHANNELS 6 Xposition Yposition Zposition Zrotation Xrotation Yrotation 
								End Site
								{
									OFFSET 0.0 0.0 0.0
								}
							}
						}
					}
				}
			}
		}
		JOINT UpperLeg_L
		{
			OFFSET -2.19248 -6.46944 0.0
			CHANNELS 6 Xposition Yposition Zposition Zrotation Xrotation Yrotation 
			JOINT LowerLeg_L
			{
				OFFSET 39.0811 0.0 -1.23785e-05
				CHANNELS 6 Xposition Yposition Zposition Zrotation Xrotation Yrotation 
				JOINT Foot_L
				{
					OFFSET 40.9854 0.0 -1.26872e-05
					CHANNELS 6 Xposition Yposition Zposition Zrotation Xrotation Yrotation 
					JOINT Toes_L
					{
						OFFSET 11.7543 0.0 0.0
						CHANNELS 6 Xposition Yposition Zposition Zrotation Xrotation Yrotation 
						End Site
						{
							OFFSET 0.0 0.0 0.0
						}
					}
				}
			}
		}
		JOINT UpperLeg_R
		{
			OFFSET -2.19251 6.46944 0.0
			CHANNELS 6 Xposition Yposition Zposition Zrotation Xrotation Yrotation 
			JOINT LowerLeg_R
			{
				OFFSET -39.0811 -0.00228153 -0.0401928
				CHANNELS 6 Xposition Yposition Zposition Zrotation Xrotation Yrotation 
				JOINT Foot_R
				{
					OFFSET -40.9854 0.0 0.0
					CHANNELS 6 Xposition Yposition Zposition Zrotation Xrotation Yrotation 
					JOINT Toes_R
					{
						OFFSET -11.7543 0.0 0.0
						CHANNELS 6 Xposition Yposition Zposition Zrotation Xrotation Yrotation 
						End Site
						{
							OFFSET 0.0 0.0 0.0
						}
					}
				}
			}
		}
	}
}
MOTION
Frames:	5
Frame Time:	0.0333333
0.000000 0.000000 0.000000 0.000000 0.000000 -0.000000 -1.291260 90.749200 -4.190100 89.350400 -2.752090 9.851110 15.735700 0.000005 -0.000001 88.011200 78.501400 -88.492300 8.984550 -0.406207 -0.000000 15.215100 -0.818552 -0.853744 16.377300 -0.000001 -0.000001 6.668000 -3.736900 1.710090 6.456720 -0.000001 -0.000000 -5.091980 -3.237470 0.976104 12.994200 -0.242716 4.980390 -91.338900 5.951280 -77.296700 5.348090 -0.000007 -0.000001 -54.055600 41.034400 -29.631500 24.328600 0.000019 0.000005 7.230590 19.468800 -20.839800 22.291600 -0.000001 0.000005 11.017100 5.312740 -0.287741 12.994500 -0.242716 -4.980390 88.978100 10.323300 -84.315600 -5.348130 -0.000001 -0.000004 -57.498800 34.379800 -22.482300 -24.328900 0.000322 -0.000009 2.131760 5.367600 -21.708400 -22.291500 -0.000108 -0.000004 15.688700 5.452240 -4.719980 -2.192480 -6.469440 -0.000000 -175.489000 -11.112300 -4.585290 39.081100 -0.000007 -0.000012 -0.154703 0.241834 32.607700 40.985400 -0.000006 -0.000013 0.404264 4.256310 -68.102400 11.754300 -0.000000 0.000003 -0.000106 -0.001078 -16.618900 -2.192510 6.469440 -0.000001 175.460000 21.515300 176.574000 -39.081100 -0.002282 -0.040193 -0.171273 0.280556 31.891400 -40.985400 0.000008 0.000006 3.834610 12.698200 -68.427800 -11.754300 -0.000006 -0.000006 -0.004645 -0.057987 -18.932200
0.000000 0.000000 0.000000 0.000000 0.000000 -0.000000 -1.264050 90.744100 -4.189790 89.309600 -2.747830 9.865250 15.735700 0.000005 -0.000001 88.038200 78.455700 -88.539700 8.984550 -0.406207 -0.000000 15.306700 -0.812535 -0.894639 16.377300 -0.000001 -0.000001 6.611640 -3.787260 1.634350 6.456720 -0.000001 -0.000000 -5.200610 -3.253530 0.842583 12.994200 -0.242716 4.980390 -91.347500 5.975970 -77.268600 5.348090 -0.000007 -0.000001 -53.920400 40.969800 -29.760200 24.328600 0.000019 0.000005 7.268200 19.416200 -20.989600 22.291600 -0.000001 0.000005 11.034900 5.312610 -0.284157 12.994500 -0.242716 -4.980390 88.943400 10.378000 -84.154400 -5.348130 -0.000001 -0.000004 -57.491600 33.947100 -22.465400 -24.328900 0.000322 -0.000009 2.282670 5.409760 -22.928100 -22.291500 -0.000108 -0.000004 15.821400 5.454140 -4.788220 -2.192480 -6.469440 -0.000000 -175.463000 -11.113600 -4.602020 39.081100 -0.000007 -0.000012 -0.155240 0.242179 32.660700 40.985400 -0.000006 -0.000013 0.430271 4.270960 -68.126800 11.754300 -0.000000 0.000003 -0.000103 -0.001058 -16.618100 -2.192510 6.469440 -0.000001 175.468000 21.542500 176.596000 -39.081100 -0.002282 -0.040193 -0.170222 0.278865 31.891500 -40.985400 0.000008 0.000006 3.821060 12.724700 -68.424400 -11.754300 -0.000006 -0.000006 -0.004659 -0.058130 -18.938100
0.000000 0.000000 0.000000 0.000000 0.000000 -0.000000 -1.231830 90.737500 -4.187620 89.281000 -2.723960 9.919550 15.735700 0.000005 -0.000001 87.996200 78.393800 -88.517900 8.984550 -0.406207 -0.000000 15.429600 -0.835186 -0.931092 16.377300 -0.000001 -0.000001 6.579730 -3.820360 1.544140 6.456720 -0.000001 -0.000000 -5.317330 -3.262360 0.667211 12.994200 -0.242716 4.980390 -91.371200 6.059900 -77.224700 5.348090 -0.000007 -0.000001 -53.729400 40.906900 -29.849300 24.328600 0.000019 0.000005 7.299090 19.312400 -21.171200 22.291600 -0.000001 0.000005 11.066500 5.313530 -0.310424 12.994500 -0.242716 -4.980390 88.908800 10.445000 -84.002400 -5.348130 -0.000001 -0.000004 -57.566800 33.230700 -22.351300 -24.328900 0.000322 -0.000009 2.531470 5.587370 -24.430400 -22.291500 -0.000108 -0.000004 16.005700 5.455990 -4.855380 -2.192480 -6.469440 -0.000000 -175.460000 -11.033100 -4.576600 39.081100 -0.000007 -0.000012 -0.155563 0.242199 32.712700 40.985400 -0.000006 -0.000013 0.441068 4.226010 -68.156000 11.754300 -0.000000 0.000003 -0.000112 -0.001134 -16.621000 -2.192510 6.469440 -0.000001 175.440000 21.558700 176.649000 -39.081100 -0.002282 -0.040193 -0.173058 0.283264 31.906000 -40.985400 0.000008 0.000006 3.796670 12.738500 -68.420500 -11.754300 -0.000006 -0.000006 -0.004552 -0.057065 -18.894700
0.000000 0.000000 0.000000 0.000000 0.000000 -0.000000 -1.185920 90.736700 -4.188730 89.254200 -2.737560 9.958320 15.735700 0.000005 -0.000001 87.988200 78.337800 -88.535700 8.984550 -0.406207 -0.000000 15.541300 -0.844397 -0.980915 16.377300 -0.000001 -0.000001 6.541370 -3.819690 1.403550 6.456720 -0.000001 -0.000000 -5.381430 -3.263610 0.578017 12.994200 -0.242716 4.980390 -91.381500 6.105960 -77.225600 5.348090 -0.000007 -0.000001 -53.637600 40.802000 -29.849100 24.328600 0.000019 0.000005 7.324010 19.231200 -21.316300 22.291600 -0.000001 0.000005 11.075400 5.312660 -0.285621 12.994500 -0.242716 -4.980390 88.869000 10.525200 -83.831300 -5.348130 -0.000001 -0.000004 -57.667300 32.314400 -22.200800 -24.328900 0.000322 -0.000009 2.831350 5.760780 -26.238600 -22.291500 -0.000108 -0.000004 16.258300 5.457010 -4.891880 -2.192480 -6.469440 -0.000000 -175.458000 -11.037400 -4.540670 39.081100 -0.000007 -0.000012 -0.155038 0.241176 32.734900 40.985400 -0.000006 -0.000013 0.465558 4.189270 -68.178500 11.754300 -0.000000 0.000003 -0.000104 -0.001066 -16.618400 -2.192510 6.469440 -0.000001 175.433000 21.571100 176.694000 -39.081100 -0.002282 -0.040193 -0.166475 0.272825 31.893300 -40.985400 0.000008 0.000006 3.781830 12.763400 -68.403700 -11.754300 -0.000006 -0.000006 -0.004612 -0.057659 -18.918900
0.000000 0.000000 0.000000 0.000000 0.000000 -0.000000 -1.136140 90.733100 -4.199220 89.244800 -2.758400 9.980890 15.735700 0.000005 -0.000001 87.946200 78.284300 -88.527700 8.984550 -0.406207 -0.000000 15.647400 -0.867721 -1.045040 16.377300 -0.000001 -0.000001 6.472230 -3.833750 1.318020 6.456720 -0.000001 -0.000000 -5.467310 -3.230160 0.420452 12.994200 -0.242716 4.980390 -91.409300 6.169500 -77.105900 5.348090 -0.000007 -0.000001 -53.437700 40.817100 -29.950700 24.328600 0.000019 0.000005 7.382120 19.328000 -21.377600 22.291600 -0.000001 0.000005 11.116900 5.312090 -0.269420 12.994500 -0.242716 -4.980390 88.827900 10.570800 -83.636300 -5.348130 -0.000001 -0.000004 -57.770500 31.304700 -22.020200 -24.328900 0.000322 -0.000009 3.180340 5.882670 -28.471600 -22.291500 -0.000108 -0.000004 16.627600 5.457710 -4.916710 -2.192480 -6.469440 -0.000000 -175.478000 -11.069200 -4.539610 39.081100 -0.000007 -0.000012 -0.153310 0.238203 32.766100 40.985400 -0.000006 -0.000013 0.505804 4.187060 -68.192700 11.754300 -0.000000 0.000003 -0.000104 -0.001060 -16.618200 -2.192510 6.469440 -0.000001 175.383000 21.541500 176.709000 -39.081100 -0.002282 -0.040193 -0.175426 0.287101 31.903000 -40.985400 0.000008 0.000006 3.738100 12.790800 -68.387500 -11.754300 -0.000006 -0.000006 -0.004708 -0.058616 -18.957900
